# xmcd
#
# Track frame offsets: 
#        150
#        19835
#        42432
#        65180
#        95090
#        116742
#        141135
#        165747
#        189527
#        212162
#        230817
#        259077
#        283057
#        303765
#
# Disc length: 4251 seconds
#
# Revision: 14
# Processed by: cddbd v1.5.2PL0 Copyright (c) Steve Scherf et al.
# Submitted via: ExactAudioCopy v0.99pb5
#
DISCID=d810990e
DTITLE=Kenny G. - Breathless
DYEAR=1992
DGENRE=Jazz
TTITLE0=The Joy Of Life
TTITLE1=Forever In Love
TTITLE2=In The Rain
TTITLE3=Sentimental
TTITLE4=By The Time This Night Is Over (feat. Peabo Bryson)
TTITLE5=End Of The Night
TTITLE6=Alone
TTITLE7=Morning
TTITLE8=Even If My Heart Would Break (feat. Aaron Neville)
TTITLE9=G-Bop
TTITLE10=Sister Rose
TTITLE11=A Year Ago
TTITLE12=Homeland
TTITLE13=The Wedding Song
EXTD=
EXTT0=
EXTT1=
EXTT2=
EXTT3=
EXTT4=
EXTT5=
EXTT6=
EXTT7=
EXTT8=
EXTT9=
EXTT10=
EXTT11=
EXTT12=
EXTT13=
PLAYORDER=
